<?xml version="1.0" standalone="no"?>
<!DOCTYPE svg PUBLIC "-//W3C//DTD SVG 20010904//EN"
 "http://www.w3.org/TR/2001/REC-SVG-20010904/DTD/svg10.dtd">
<svg version="1.0" xmlns="http://www.w3.org/2000/svg"
 width="300.000000pt" height="230.000000pt" viewBox="0 0 300.000000 230.000000"
 preserveAspectRatio="xMidYMid meet">
<metadata>
Created by potrace 1.10, written by Peter Selinger 2001-2011
</metadata>
<g transform="translate(0.000000,230.000000) scale(0.100000,-0.100000)"
fill="#000000" stroke="none">
<path d="M695 2239 c-14 -17 -25 -39 -25 -50 0 -10 -6 -19 -12 -19 -9 0 -8 -4
2 -10 21 -14 36 -12 53 4 12 13 15 5 21 -61 3 -42 6 -147 6 -235 l0 -158 -70
0 c-38 0 -70 2 -70 5 0 2 9 19 20 37 21 34 28 118 10 118 -5 0 -10 21 -10 47
0 36 6 53 24 72 14 16 26 44 29 71 4 30 3 38 -3 25 -5 -11 -9 -28 -9 -39 -1
-10 -12 -31 -26 -48 -19 -23 -25 -41 -25 -78 0 -27 5 -52 10 -55 18 -11 10
-23 -20 -27 -30 -4 -30 -4 -23 36 3 23 10 43 15 45 5 1 1 10 -9 18 -17 13 -17
14 0 9 9 -3 17 -1 17 4 0 6 -7 10 -15 10 -16 0 -16 20 -1 32 6 4 4 13 -3 22
-7 9 -11 22 -8 29 7 17 -18 63 -27 49 -3 -6 -2 -13 4 -17 5 -3 10 -19 10 -36
0 -16 5 -29 11 -29 8 0 8 -4 0 -14 -9 -11 -10 -42 -1 -66 3 -7 0 -42 -6 -69
-4 -18 -10 -22 -29 -18 -16 3 -25 0 -25 -8 0 -9 18 -13 57 -12 31 0 59 -5 60
-10 2 -6 -14 -48 -37 -94 -24 -50 -38 -71 -35 -52 4 20 2 34 -6 39 -9 5 -10 2
-6 -9 3 -9 3 -27 -2 -39 l-8 -21 -15 21 c-8 12 -18 19 -21 15 -8 -7 34 -39 46
-35 4 1 7 -4 7 -12 0 -8 -5 -16 -11 -18 -7 -2 -10 -11 -7 -18 5 -13 31 34 51
92 5 13 20 16 81 16 l76 1 0 -60 0 -59 -68 0 c-44 0 -75 -5 -89 -15 -16 -11
-22 -12 -26 -2 -2 6 -8 8 -13 4 -17 -16 19 -26 40 -11 11 8 44 14 73 14 52 0
53 0 53 -30 0 -25 4 -30 23 -29 16 1 18 2 5 6 -19 5 -26 53 -8 53 18 0 37 -55
36 -101 -2 -51 19 -65 22 -15 1 17 5 40 8 51 4 14 3 16 -4 7 -7 -11 -10 -10
-14 5 -3 10 -9 26 -13 36 -6 15 -1 17 39 17 43 0 46 -2 46 -26 0 -21 -4 -25
-20 -21 -11 3 -18 1 -14 -4 3 -5 11 -9 19 -9 9 0 13 -15 13 -51 1 -29 5 -56 9
-60 4 -4 8 38 8 94 l0 102 27 3 c22 3 32 -4 53 -37 18 -30 24 -49 19 -69 -4
-21 -3 -24 5 -12 16 22 14 36 -14 80 -29 46 -30 50 -9 50 8 0 13 4 9 9 -3 5
-1 12 5 16 5 3 10 2 10 -2 0 -5 10 -13 23 -18 14 -7 21 -17 19 -30 -4 -26 -4
-34 4 -72 10 -52 46 -40 48 16 1 18 6 26 18 25 10 -1 14 4 11 13 -5 11 -9 11
-25 -3 -10 -10 -18 -25 -17 -33 2 -29 -1 -41 -11 -41 -5 0 -10 10 -10 23 0 13
-5 28 -11 34 -8 8 -8 13 0 17 15 10 14 43 -1 49 -10 4 -10 6 0 6 6 1 12 8 12
17 0 8 5 12 10 9 6 -4 8 -10 6 -14 -3 -4 13 -8 35 -9 54 -2 113 -46 99 -72 -7
-13 -7 -21 0 -25 15 -9 2 -25 -20 -25 -23 0 -40 28 -40 64 0 14 -4 26 -10 26
-14 0 -13 -15 4 -55 21 -51 55 -61 94 -29 2 1 -2 12 -8 24 -20 37 -4 34 56
-12 55 -42 60 -43 141 -47 78 -3 83 -4 82 -25 -2 -45 -13 -66 -29 -56 -13 9
-13 11 0 21 13 9 13 10 0 6 -23 -6 -24 -34 0 -40 27 -7 26 -27 -2 -24 -13 1
-25 5 -28 8 -3 4 -16 10 -30 14 -24 7 -24 7 -5 -9 18 -14 16 -14 -27 0 -43 14
-60 14 -255 -10 -157 -20 -254 -26 -399 -26 -185 0 -191 1 -223 24 -18 13 -27
26 -20 28 9 3 7 12 -4 33 -9 17 -16 23 -17 15 0 -9 5 -21 11 -27 7 -7 7 -13 1
-17 -13 -8 -18 0 -27 43 -5 23 -4 31 4 27 6 -4 11 -2 11 3 0 6 -4 11 -10 11
-5 0 -10 5 -10 11 0 5 5 7 12 3 7 -4 8 -3 4 4 -5 8 1 12 16 12 21 1 21 2 5 11
-10 6 -16 18 -13 27 11 35 5 162 -8 162 -3 0 -6 -3 -7 -7 -1 -5 -5 -16 -11
-27 -7 -13 -7 -16 1 -12 12 8 32 -33 23 -48 -3 -5 -5 -22 -4 -37 0 -16 -4 -29
-11 -29 -8 0 -8 -3 0 -11 9 -9 8 -16 -4 -27 -11 -11 -14 -27 -10 -55 4 -30 1
-43 -14 -58 -23 -23 -25 -49 -4 -49 8 0 15 -4 15 -9 0 -5 -9 -7 -20 -4 -11 3
-20 0 -20 -6 0 -5 7 -8 15 -5 8 4 15 1 15 -5 0 -7 -6 -14 -14 -17 -8 -3 -18
-20 -22 -37 -3 -18 -11 -35 -16 -38 -5 -3 -11 -17 -13 -30 -2 -13 -10 -57 -18
-97 -13 -69 -10 -137 8 -184 4 -11 3 -18 -4 -18 -6 0 -11 -10 -11 -22 1 -23 1
-23 16 2 14 23 14 23 9 3 -4 -13 -3 -23 2 -23 4 0 9 -12 10 -27 1 -20 -1 -23
-9 -12 -8 12 -9 12 -5 -1 2 -8 9 -16 15 -16 7 -1 17 -2 23 -3 5 0 7 -6 4 -11
-4 -6 -11 -7 -17 -4 -6 4 -5 -2 2 -15 6 -12 16 -18 22 -15 8 5 9 1 5 -10 -5
-11 -3 -15 5 -10 7 5 9 2 5 -8 -3 -10 5 -26 22 -42 22 -21 30 -24 40 -13 11
10 13 9 8 -5 -3 -9 2 -23 12 -32 15 -14 18 -14 34 4 9 11 25 20 34 20 14 -1
12 -5 -10 -24 -27 -22 -27 -23 -8 -40 13 -11 21 -14 26 -6 3 5 12 7 18 4 7 -4
9 -4 5 1 -4 4 -3 14 4 22 8 11 7 12 -6 7 -9 -3 -16 -10 -16 -16 0 -5 -4 -6
-10 -3 -16 10 -12 21 14 33 20 9 27 8 37 -5 12 -13 15 -11 25 18 18 49 18 49
-25 49 l-40 0 -4 48 -3 47 -2 -51 c-2 -50 -17 -74 -62 -99 -13 -7 -13 -6 -2 7
10 13 10 17 -3 21 -8 4 -12 13 -9 22 6 14 8 13 19 -2 8 -10 17 -15 21 -10 4 4
2 7 -4 7 -7 0 -12 5 -12 11 0 6 -12 26 -26 44 l-26 34 46 -3 c29 -2 45 1 43 7
-5 16 -127 15 -127 0 0 -7 -7 -13 -15 -13 -8 0 -15 5 -15 10 0 6 5 10 12 10 6
0 3 7 -8 16 -17 14 -12 15 69 11 48 -2 87 0 87 5 0 4 -38 8 -85 8 -70 0 -86 3
-94 18 -5 9 -9 20 -10 25 -2 16 -14 63 -19 72 -9 16 -14 80 -5 71 4 -4 8 -13
8 -19 0 -16 66 -31 98 -23 14 3 32 18 39 34 10 20 22 28 46 30 l32 3 0 -105
c0 -61 4 -107 10 -111 7 -4 8 30 4 105 l-7 112 59 -5 c32 -3 83 -6 112 -6 l52
-1 2 -97 2 -98 5 105 6 105 48 -77 c27 -43 45 -82 42 -88 -4 -6 -2 -9 4 -8 6
2 21 -12 32 -30 l21 -32 -25 0 c-14 0 -28 6 -30 13 -4 9 -8 9 -15 -2 -5 -7
-11 -9 -13 -4 -2 6 -16 13 -31 17 -23 5 -28 3 -28 -11 0 -15 -2 -15 -9 -4 -8
12 -12 13 -25 1 -9 -7 -19 -10 -23 -6 -3 3 -1 6 5 6 7 0 12 3 12 8 0 4 -16 7
-35 7 -21 0 -35 -5 -35 -12 0 -9 -17 -13 -49 -13 -49 0 -50 1 -54 33 l-4 32
-1 -32 c-2 -24 -7 -33 -19 -33 -9 0 -14 -3 -11 -6 4 -3 94 -5 202 -4 152 0
197 -2 201 -12 3 -7 7 -66 8 -131 l4 -117 -58 0 c-51 0 -61 4 -88 31 -30 30
-31 34 -33 127 -1 66 -3 79 -5 40 l-4 -58 -36 0 c-20 0 -33 -3 -30 -7 4 -3 20
-6 37 -5 27 1 30 -2 30 -29 l0 -30 -37 28 c-21 15 -40 31 -43 34 -3 4 -15 9
-27 13 -21 7 -22 5 -16 -31 7 -49 20 -64 15 -17 -4 35 -4 36 19 24 13 -7 40
-26 60 -41 31 -24 35 -33 31 -61 -2 -18 -8 -37 -12 -43 -4 -5 -13 -26 -19 -46
-13 -42 -61 -93 -61 -66 0 9 -5 19 -11 22 -5 4 -3 -10 6 -31 8 -20 13 -40 10
-43 -3 -3 -8 5 -12 17 -3 12 -9 20 -13 17 -5 -3 -12 0 -16 6 -5 8 -3 9 6 4 9
-5 10 -2 5 14 -10 32 4 45 26 25 10 -9 20 -14 20 -11 1 4 3 12 4 17 1 6 3 15
4 21 0 5 6 7 13 3 6 -4 9 -3 6 2 -3 5 -18 35 -33 67 -15 32 -30 56 -32 53 -2
-2 3 -18 12 -35 20 -40 13 -52 -25 -41 -32 9 -36 5 -20 -20 6 -10 10 -11 10
-2 0 6 6 12 14 12 8 0 12 -8 9 -23 -7 -33 -30 -29 -44 7 -7 17 -21 41 -32 54
-13 13 -16 22 -8 22 7 0 10 4 7 9 -7 11 -32 9 -43 -4 -4 -4 -2 -5 6 0 11 6 13
3 9 -13 -4 -15 4 -32 26 -56 52 -57 57 -66 52 -84 -4 -12 4 -28 25 -48 27 -25
65 -85 68 -106 1 -5 1 -26 1 -48 0 -27 4 -39 13 -38 8 2 12 -15 13 -57 2 -85
7 -90 13 -15 5 49 10 65 21 65 10 0 15 -10 15 -33 0 -19 -3 -36 -7 -39 -5 -2
-7 -16 -7 -31 1 -21 2 -22 6 -7 3 11 9 24 14 29 5 6 9 27 9 48 0 31 -4 39 -24
44 -18 4 -23 11 -20 27 4 21 4 21 -5 0 -12 -27 -17 -28 -25 -7 -3 8 -2 12 4 9
6 -3 10 -2 10 4 0 5 -4 13 -10 16 -5 3 -10 11 -10 18 0 8 3 8 12 -1 18 -18 23
-15 26 13 1 14 -3 25 -9 25 -6 0 -8 7 -5 16 4 10 1 14 -6 12 -7 -3 -13 -10
-13 -15 0 -6 -3 -15 -7 -19 -5 -4 -8 0 -8 10 0 9 -9 35 -21 57 l-20 41 22 24
c17 18 25 21 36 13 7 -6 24 -9 37 -7 15 3 27 -1 35 -14 15 -24 34 -23 26 2 -5
15 -3 18 9 14 9 -3 16 -2 16 4 0 13 -67 21 -79 9 -5 -5 -11 -4 -15 2 -4 5 -14
7 -22 4 -13 -5 -15 -1 -9 18 4 13 14 36 21 51 8 15 14 39 14 53 0 23 2 24 20
13 11 -7 20 -18 20 -25 0 -9 21 -13 71 -13 65 0 71 -2 66 -19 -2 -10 -1 -25 4
-32 13 -20 11 264 -2 298 -9 25 -7 31 16 50 38 33 49 30 39 -14 -8 -41 -8 -89
1 -141 4 -23 3 -32 -4 -27 -7 3 -11 -2 -11 -15 0 -11 6 -23 14 -26 8 -3 14
-25 15 -63 1 -56 1 -58 -31 -72 l-33 -14 -3 -92 c-3 -101 -14 -123 -51 -103
-24 12 -27 30 -9 48 7 7 13 30 14 53 2 36 1 38 -11 22 -10 -13 -10 -23 -3 -37
8 -15 7 -22 -6 -31 -9 -7 -16 -17 -16 -23 0 -6 -19 -15 -42 -19 -37 -7 -43
-12 -46 -36 -5 -38 32 -38 50 0 7 15 22 29 33 32 20 3 20 3 1 -18 -19 -21 -19
-21 3 -21 12 0 20 4 16 9 -7 13 48 9 57 -4 4 -5 8 -31 8 -57 0 -36 -4 -48 -15
-48 -19 0 -19 -14 -1 -33 8 -7 16 -25 19 -38 4 -23 4 -23 6 3 0 15 6 30 11 33
6 3 10 15 10 26 0 12 -4 17 -11 14 -7 -5 -9 42 -7 152 l4 158 35 17 c18 9 52
18 74 19 l40 2 -37 4 c-29 3 -38 9 -38 23 0 14 9 20 38 23 l37 4 -42 1 c-40 2
-43 4 -43 31 0 17 5 33 10 36 16 10 12 45 -4 39 -9 -4 -15 6 -19 33 -7 47 0
270 9 284 4 7 19 -1 38 -18 l31 -28 -28 31 -29 32 31 33 30 34 0 -159 c1 -88
3 -161 6 -164 3 -3 5 37 5 89 l0 94 50 16 c55 17 66 9 23 -16 -21 -12 -23 -14
-6 -10 12 3 24 1 28 -5 3 -5 14 -10 25 -10 19 0 30 -19 36 -64 2 -17 9 -33 15
-37 7 -4 9 -15 5 -25 -5 -14 -4 -16 4 -8 9 9 8 23 -4 58 -9 26 -16 60 -16 77
0 22 -6 32 -25 39 -14 5 -25 12 -25 14 0 3 65 25 144 50 98 32 160 46 198 46
l55 0 26 58 27 57 0 -38 c0 -39 14 -76 34 -89 8 -5 4 -20 -11 -47 -13 -22 -23
-45 -23 -51 0 -6 19 -31 41 -55 39 -43 41 -47 34 -91 -6 -45 -7 -46 -38 -41
-62 10 -122 28 -153 47 -24 14 -35 15 -44 7 -10 -9 -12 -8 -7 5 3 9 -2 23 -14
34 -10 9 -19 29 -19 43 -1 23 -2 24 -11 8 -8 -14 -7 -24 5 -43 9 -13 20 -24
25 -24 5 0 8 -8 7 -17 -1 -12 7 -18 24 -19 14 -1 43 -9 65 -19 40 -18 59 -23
127 -32 l36 -5 7 56 c7 53 6 58 -19 77 -15 11 -33 34 -42 51 -14 26 -14 32 -1
46 27 31 30 60 9 90 -11 15 -21 45 -23 68 -4 39 -2 42 43 74 27 18 48 37 48
42 0 5 -7 2 -16 -6 -21 -22 -54 -39 -54 -28 0 13 48 56 65 58 8 1 23 10 32 20
15 15 16 17 2 12 -9 -4 -22 -1 -28 5 -9 9 -11 8 -6 -3 4 -13 -7 -15 -70 -15
-66 0 -75 2 -75 18 0 17 8 18 90 15 74 -2 90 0 91 12 1 8 1 49 2 90 l0 75 4
-68 4 -69 99 4 c95 3 100 2 100 -17 0 -12 -5 -26 -12 -33 -9 -9 -9 -12 0 -12
7 0 12 -6 12 -14 0 -12 7 -12 36 -4 20 5 42 7 49 5 7 -3 17 -1 23 5 7 7 17 6
31 -1 26 -14 27 -38 4 -44 -14 -4 -13 -5 4 -6 12 0 26 -9 32 -18 7 -13 20 -17
51 -14 l41 3 -15 -36 c-23 -55 -35 -74 -36 -56 0 8 -3 25 -6 38 -5 18 -2 22
17 22 12 0 20 3 16 6 -3 3 -58 5 -121 5 l-116 -2 0 26 c0 26 5 28 53 25 15 -1
27 3 27 9 0 7 -19 10 -47 8 -47 -3 -48 -3 -45 -35 3 -29 1 -32 -23 -32 -23 0
-25 2 -15 15 6 8 10 22 7 32 -4 14 -5 14 -6 -4 -2 -35 -20 -37 -52 -7 -20 19
-26 31 -19 38 5 5 10 15 10 21 0 5 -5 3 -11 -5 -8 -12 -10 -10 -8 10 3 54 0
60 -23 51 -13 -5 -22 -14 -21 -20 5 -20 -7 -11 -17 12 -7 18 -9 16 -9 -18 1
-22 3 -34 6 -27 2 6 9 12 15 12 6 0 8 -6 5 -13 -3 -8 -1 -20 4 -28 7 -11 9
-10 10 6 1 11 0 31 -1 45 -3 47 18 6 24 -45 3 -27 8 -65 12 -82 3 -18 3 -41
-1 -50 -6 -16 -8 -15 -25 7 -10 13 -16 28 -14 32 3 5 -2 11 -11 14 -11 5 -13
9 -6 14 17 10 2 72 -15 66 -8 -3 -14 0 -14 6 0 7 -5 6 -15 -2 -11 -9 -15 -32
-15 -80 0 -59 2 -68 20 -73 11 -3 20 -1 20 4 0 4 7 6 15 3 10 -4 15 0 15 12 0
16 2 15 16 -4 13 -18 19 -21 30 -11 11 9 14 8 14 -4 0 -10 13 -16 40 -19 22
-2 40 0 40 4 0 5 -16 8 -35 8 -19 0 -35 2 -35 5 0 3 12 17 28 31 15 14 21 23
15 19 -7 -3 -13 -1 -13 4 0 6 14 11 30 11 l30 0 0 -66 c0 -57 5 -74 36 -130
20 -36 35 -66 33 -67 -5 -4 -59 -27 -62 -27 -2 0 -2 26 -1 59 2 67 -28 134
-61 138 -13 1 -14 0 -4 -3 30 -9 55 -75 54 -137 -2 -66 15 -86 50 -61 10 8 22
14 27 14 4 0 8 -35 8 -79 0 -76 -1 -78 -23 -74 -28 6 -34 47 -13 98 14 32 6
50 -10 23 -13 -21 -16 -109 -3 -124 11 -14 9 -15 -58 -39 -12 -4 -18 -25 -14
-47 0 -5 -4 -8 -11 -8 -6 0 -9 -3 -5 -6 3 -4 -9 -23 -28 -42 -19 -20 -32 -38
-30 -40 2 -3 16 10 30 27 16 18 36 31 48 30 21 0 21 -1 2 -9 -22 -9 -61 -51
-57 -62 1 -4 -4 -6 -11 -4 -6 1 -8 1 -4 -2 23 -12 -110 -101 -152 -102 -8 0
-23 -7 -32 -16 -14 -13 -16 -21 -8 -36 6 -11 8 -36 4 -55 -5 -29 -3 -35 14
-40 12 -3 18 -9 15 -14 -3 -5 -14 -5 -25 1 -13 7 -19 7 -19 0 0 -5 -4 -10 -10
-10 -5 0 -10 6 -10 14 0 8 -4 17 -9 20 -5 3 -8 -1 -7 -10 0 -9 -9 -23 -21 -31
-13 -9 -23 -11 -23 -5 0 6 9 14 20 17 11 4 18 11 14 16 -9 16 -46 -23 -41 -43
3 -9 -2 -23 -10 -29 -12 -10 -13 -8 -9 15 3 15 1 24 -5 21 -5 -4 -7 -10 -4
-15 3 -4 -1 -10 -7 -13 -10 -4 -10 -7 -1 -18 11 -11 19 -7 47 20 28 27 42 33
78 33 44 0 73 -7 96 -25 13 -10 2 -24 -108 -133 -24 -24 -40 -44 -34 -44 5 0
24 15 41 32 111 119 127 133 131 115 2 -9 8 -17 13 -17 6 0 8 8 5 18 -4 13 2
21 24 29 29 11 30 14 30 70 l0 58 67 55 c111 92 116 105 128 304 l10 171 -42
82 c-37 70 -43 90 -43 142 l0 61 94 0 94 0 11 -46 c6 -25 8 -50 4 -57 -5 -7
-8 -68 -8 -137 0 -218 -39 -404 -102 -486 -24 -32 -28 -46 -28 -104 0 -76 -13
-100 -56 -100 -21 0 -29 -5 -29 -18 0 -10 -13 -25 -28 -34 -16 -9 -38 -39 -52
-67 -12 -28 -27 -48 -31 -45 -4 2 0 18 9 35 16 29 16 31 -2 44 -11 8 -32 15
-47 15 -15 0 -30 6 -32 13 -3 7 -6 7 -6 1 -1 -6 9 -19 21 -30 12 -10 19 -14
15 -8 -4 6 3 10 16 8 33 -4 34 -5 12 -15 -19 -9 -18 -9 3 -5 25 5 29 -6 7 -24
-18 -15 -19 -27 -3 -44 10 -11 19 -10 46 6 30 16 37 17 51 5 33 -28 62 -28 92
3 30 29 54 31 92 4 18 -12 18 -12 0 -23 -24 -14 -8 -14 19 0 20 11 19 11 -8
28 -54 33 -81 34 -100 6 -19 -29 -53 -33 -90 -8 -21 13 -30 14 -45 5 -30 -19
-32 -14 -8 27 24 44 74 85 90 75 6 -3 24 10 41 30 l29 36 85 0 c64 0 84 -3 84
-13 0 -27 -41 -132 -55 -143 -12 -9 -12 -14 6 -32 22 -24 38 -30 20 -8 -10 12
-7 30 13 86 14 39 26 80 26 91 0 18 8 19 118 19 82 -1 124 -5 142 -15 17 -10
59 -14 138 -15 77 0 111 -3 107 -11 -4 -5 -12 -8 -18 -6 -7 2 -33 -7 -58 -20
-55 -27 -66 -29 -48 -6 13 15 12 15 -9 4 -12 -6 -27 -9 -32 -6 -6 3 -10 -4
-11 -17 0 -13 -3 -18 -5 -11 -6 13 -35 6 -45 -10 -4 -5 -18 -9 -33 -9 -29 0
-35 -14 -8 -22 9 -3 0 -3 -21 0 -28 4 -39 1 -43 -10 -3 -9 -11 -13 -17 -9 -6
3 -7 1 -3 -6 4 -6 2 -18 -4 -26 -7 -8 -8 -15 -4 -15 10 0 39 41 37 50 -1 3 13
4 30 3 18 -2 43 3 57 11 14 9 37 20 52 27 16 6 26 15 23 19 -3 4 4 6 14 3 10
-3 41 5 68 18 26 12 53 21 59 20 6 -1 17 6 24 14 16 20 64 19 80 -1 14 -15 80
-47 87 -41 2 2 -15 12 -37 23 -22 10 -40 22 -40 27 0 4 19 7 42 7 62 0 42 8
-29 12 -34 1 -59 6 -57 10 3 5 1 8 -5 8 -5 0 -13 -5 -16 -10 -10 -16 -227 -12
-268 5 -28 12 -81 15 -237 15 l-200 0 0 66 c0 56 4 72 29 108 38 54 70 151 81
246 5 41 12 100 16 130 7 59 23 85 56 93 20 6 20 3 14 -61 -4 -37 -13 -105
-21 -151 -17 -95 -20 -388 -5 -411 6 -10 10 51 10 181 0 108 5 221 11 250 6
30 13 94 17 144 6 74 10 90 25 93 9 2 17 -1 17 -7 0 -5 -8 -12 -17 -14 -17 -4
-17 -5 0 -6 10 0 20 5 23 12 7 20 98 16 102 -5 3 -16 52 -55 52 -42 0 4 -10
17 -22 30 -104 105 -104 105 -123 68 -6 -11 -18 -18 -27 -16 -10 2 -18 -1 -18
-7 0 -6 -7 -8 -16 -4 -13 5 -15 2 -10 -15 6 -17 2 -23 -18 -28 -14 -3 -26 -10
-26 -15 0 -5 -4 -9 -10 -9 -6 0 -10 35 -10 85 0 47 3 85 6 85 7 0 44 -44 61
-74 7 -12 12 -16 13 -10 0 6 -13 30 -30 52 -35 49 -35 50 -13 97 l17 35 120 0
121 -1 35 -47 c47 -63 48 -66 11 -59 -23 5 -31 3 -31 -8 0 -10 10 -13 39 -10
34 3 42 -1 77 -36 21 -21 46 -39 57 -39 10 0 15 -5 12 -10 -4 -6 -10 -8 -14
-6 -11 7 -51 -23 -51 -37 0 -7 7 -4 14 6 21 27 70 30 92 5 34 -38 89 -66 137
-69 26 -2 47 -1 47 3 0 5 -18 8 -41 8 -47 0 -70 11 -121 56 -35 32 -36 34 -18
44 11 6 20 17 20 25 0 26 21 27 45 1 13 -14 28 -26 32 -27 29 -3 50 -7 66 -14
10 -4 17 -3 17 4 0 11 -5 13 -54 16 -18 1 -38 12 -51 29 -27 34 -47 33 -69 -5
-16 -27 -22 -29 -49 -24 -29 6 -87 50 -87 65 0 3 23 5 50 4 28 -2 50 2 50 7 0
10 -13 13 -45 10 -23 -2 -38 -2 -61 1 -9 1 -37 28 -63 62 -88 115 -121 146
-121 116 0 -5 6 -10 14 -10 7 0 21 -11 30 -25 l16 -25 -110 0 c-115 0 -116 0
-104 46 5 19 9 20 43 11 22 -6 49 -7 67 -1 25 7 21 9 -36 14 l-65 5 3 45 c2
25 8 49 13 55 12 12 12 45 -1 45 -6 0 -10 32 -10 76 0 83 -7 101 -56 157 -19
20 -34 41 -34 47 0 15 63 57 98 65 27 5 32 4 33 -12 0 -10 3 -13 6 -5 2 6 10
9 16 5 19 -13 77 -10 77 3 0 8 -9 10 -27 5 -15 -4 -36 -3 -48 2 -19 10 -18 12
20 53 22 23 51 45 65 49 39 11 119 76 142 115 11 19 39 69 61 110 26 48 66 99
110 143 38 37 64 67 59 67 -6 0 -33 -25 -61 -56 -56 -61 -61 -60 -30 11 11 25
18 49 15 52 -5 6 -15 -15 -41 -87 -10 -28 -17 -35 -36 -33 -60 7 -159 -77
-159 -135 0 -17 -4 -22 -14 -19 -15 6 -26 -12 -26 -40 0 -9 6 -13 15 -9 10 4
15 -1 15 -14 0 -11 -4 -20 -10 -20 -5 0 -10 5 -10 10 0 6 -4 10 -10 10 -5 0
-10 -9 -10 -19 0 -13 -15 -27 -47 -42 -51 -24 -73 -46 -67 -64 3 -6 -9 -16
-26 -22 -24 -9 -36 -8 -60 3 -33 17 -51 12 -49 -14 1 -15 2 -15 6 1 5 21 7 21
43 2 26 -14 34 -14 65 -1 19 8 35 22 35 30 0 9 6 16 14 16 8 0 16 6 19 14 4 9
14 12 28 9 15 -4 20 -2 15 5 -3 6 -1 14 5 18 8 5 9 3 4 -5 -6 -10 -3 -11 12
-2 44 23 70 100 32 93 -8 -1 -3 8 11 20 14 13 24 30 22 40 -2 9 2 19 7 23 6 3
11 13 11 21 0 9 6 21 13 27 19 19 116 61 123 54 7 -6 -28 -78 -83 -174 -29
-49 -95 -106 -150 -128 -23 -9 -54 -33 -70 -53 -21 -26 -43 -41 -74 -49 -24
-6 -54 -21 -66 -32 -12 -12 -24 -21 -27 -21 -2 0 -5 38 -5 84 -1 91 -11 129
-40 155 -24 20 -51 108 -44 144 4 19 1 27 -9 27 -8 0 -27 23 -43 51 -22 42
-26 58 -21 92 l6 42 -35 -62 c-27 -47 -40 -61 -52 -56 -14 5 -15 1 -10 -25 4
-21 -1 -51 -16 -92 -19 -50 -30 -65 -70 -90 -26 -16 -50 -30 -53 -30 -15 0
-36 83 -36 140 0 52 -2 60 -10 40 -5 -14 -6 -45 -3 -70 3 -25 7 -75 9 -112 4
-64 3 -68 -17 -68 -17 0 -19 -2 -7 -9 8 -6 18 -7 22 -5 4 3 8 -54 8 -125 0
-81 -4 -131 -10 -131 -5 0 -10 -11 -10 -25 0 -19 -5 -25 -22 -26 -106 -5 -118
-5 -115 5 2 6 20 11 40 10 23 0 37 5 37 12 0 9 -8 10 -29 4 -37 -10 -51 3 -51
48 0 32 2 34 28 28 64 -16 125 -19 118 -7 -5 7 -19 11 -31 9 -13 -2 -24 0 -25
5 -3 54 1 66 27 76 l28 10 -30 -2 c-27 -2 -30 -6 -35 -42 -3 -23 -10 -40 -17
-39 -7 1 -24 2 -38 3 -19 1 -25 7 -25 24 0 13 6 29 13 36 9 11 9 14 0 18 -7 2
-15 27 -19 54 -4 27 -10 49 -15 49 -11 0 -11 2 2 -40 6 -19 10 -90 9 -157 l-1
-123 78 3 c77 2 78 2 81 30 2 15 9 27 18 27 10 0 14 -12 12 -47 l-1 -48 -7 45
-7 45 -1 -42 c-2 -39 -4 -43 -28 -43 -17 0 -23 4 -18 13 6 10 4 10 -7 0 -9 -9
-53 -13 -142 -13 l-130 0 5 76 c5 73 4 76 -21 92 -44 28 -71 56 -71 76 0 11 7
43 17 72 12 40 22 54 40 59 31 7 46 48 40 110 -3 28 -3 42 0 33 3 -13 13 -17
39 -15 19 1 34 7 34 14 0 9 -7 10 -25 3 -20 -8 -27 -5 -45 17 -25 32 -25 49
-1 96 22 42 37 132 24 140 -4 3 -9 -16 -10 -43 -1 -26 -12 -66 -24 -89 -20
-38 -20 -48 -11 -114 14 -92 7 -124 -28 -142 -21 -11 -33 -30 -49 -77 -12 -34
-21 -67 -21 -73 0 -6 23 -28 50 -49 l50 -38 0 -74 0 -74 -72 0 c-81 0 -90 4
-200 87 -48 37 -63 54 -55 62 8 8 2 11 -23 12 -19 0 -42 2 -50 4 -37 7 -158
61 -186 82 l-31 23 26 68 c19 49 25 86 26 138 0 54 3 70 12 67 7 -3 13 2 13
11 0 10 -5 13 -16 9 -14 -5 -16 2 -14 48 5 87 1 169 -8 169 -5 0 -7 -53 -5
-117 3 -65 1 -113 -4 -108 -13 16 -46 18 -41 3 3 -7 13 -12 22 -10 19 3 36
-35 36 -81 -1 -31 -41 -161 -54 -174 -3 -4 -6 5 -6 20 0 14 4 29 10 32 13 8
13 55 0 55 -5 0 -10 10 -10 21 0 12 -8 28 -17 35 -15 11 -16 15 -4 23 8 5 24
7 37 5 12 -2 26 0 29 6 4 6 -10 10 -34 10 -26 0 -41 -5 -41 -12 0 -8 -7 -5
-15 6 -8 11 -15 16 -15 11 0 -4 11 -23 25 -41 14 -18 25 -39 25 -46 0 -8 5
-19 12 -26 9 -9 9 -17 -2 -36 -10 -19 -11 -48 -4 -131 6 -67 6 -109 0 -115 -6
-6 -29 -10 -53 -10 l-43 0 0 40 c0 30 4 40 16 40 12 0 15 -7 12 -29 -2 -17 0
-27 4 -24 5 3 9 17 8 31 -4 50 0 64 13 59 8 -3 20 -1 28 4 9 6 -2 9 -33 9
l-48 0 0 133 0 132 31 -52 c17 -29 35 -53 40 -53 5 0 9 -7 9 -15 0 -8 5 -15
10 -15 15 0 13 3 -25 51 -19 24 -35 49 -35 55 0 6 -6 17 -14 24 -15 12 -19 93
-4 84 11 -7 10 10 -1 22 -5 5 -11 30 -12 56 -3 46 12 78 36 78 15 0 50 38 42
46 -3 3 -11 -4 -17 -16 -7 -12 -18 -19 -25 -16 -8 3 -22 -5 -31 -17 -15 -22
-16 -21 -12 15 5 49 -14 56 -47 17z m19 -60 c-9 -10 -21 -19 -27 -19 -14 0 1
61 21 83 17 19 17 19 20 -13 2 -20 -3 -39 -14 -51z m1378 -58 c9 -13 14 -30
11 -38 -3 -7 1 -21 10 -31 8 -9 23 -40 32 -69 9 -29 28 -64 41 -78 22 -23 24
-35 24 -114 0 -101 13 -142 64 -199 18 -20 36 -49 39 -64 7 -25 4 -27 -44 -38
-27 -7 -52 -10 -54 -8 -2 2 1 21 6 43 20 76 19 110 -1 40 -11 -38 -20 -73 -20
-77 0 -5 -29 -8 -65 -8 l-65 0 1 53 c1 28 4 42 6 30 3 -18 11 -23 34 -23 29 0
41 22 19 35 -5 3 -10 18 -11 33 0 24 -1 25 -8 7 -5 -13 -3 -28 7 -42 13 -21
13 -23 -6 -23 -12 0 -23 9 -27 23 -10 30 -16 125 -7 111 4 -5 27 -10 51 -10
35 1 45 5 47 20 1 10 9 23 16 27 10 7 10 9 -2 9 -13 0 -13 1 0 10 13 8 12 10
-2 10 -10 0 -18 -4 -18 -10 0 -6 -60 -10 -160 -10 l-160 0 0 89 0 90 50 28
c46 26 53 34 78 100 17 45 34 74 45 76 9 3 17 15 17 27 0 13 -4 18 -11 14 -6
-3 -3 9 6 27 l17 33 12 -36 c7 -19 20 -45 28 -57z m-65 13 c-3 -3 -12 -4 -19
-1 -8 3 -5 6 6 6 11 1 17 -2 13 -5z m-195 -309 c-2 -53 -5 -95 -7 -93 -1 1 -5
49 -8 106 -5 79 -3 101 6 94 8 -7 11 -41 9 -107z m673 56 c-3 -6 -11 -11 -17
-11 -6 0 -6 6 2 15 14 17 26 13 15 -4z m-1621 -160 c13 -15 14 -20 4 -24 -7
-3 -1 -6 13 -6 14 -1 46 -8 71 -17 37 -12 45 -19 41 -34 -4 -17 -9 -18 -26 -8
-21 11 -21 11 -2 19 16 6 17 8 3 8 -9 1 -24 -6 -32 -15 -17 -16 -28 -13 -64
20 -17 15 -21 16 -17 5 3 -9 17 -22 30 -29 25 -13 25 -30 -1 -30 -8 0 -14 7
-14 15 0 8 -6 15 -14 15 -11 0 -15 12 -14 39 0 22 -3 44 -6 50 -12 18 10 12
28 -8z m943 -108 c-2 -21 -4 -4 -4 37 0 41 2 58 4 38 2 -21 2 -55 0 -75z m232
-13 c0 -72 -3 -120 -9 -120 -6 0 -10 5 -10 10 0 6 -6 10 -14 10 -16 0 -29 41
-20 64 3 9 15 16 25 16 10 0 19 5 19 10 0 25 -48 -4 -60 -36 -13 -33 -31 -21
-24 15 3 16 2 31 -4 35 -11 7 -61 -17 -72 -35 -5 -8 -13 -8 -26 -1 -14 8 -18
23 -18 81 l-1 71 107 0 106 0 1 -120z m111 110 c0 -14 -45 -23 -75 -16 -42 11
-28 26 25 26 28 0 50 -4 50 -10z m-1390 -25 c0 -8 -7 -15 -15 -15 -8 0 -15 7
-15 15 0 8 7 15 15 15 8 0 15 -7 15 -15z m100 -65 c0 -5 -5 -10 -11 -10 -5 0
-7 5 -4 10 3 6 8 10 11 10 2 0 4 -4 4 -10z m1078 -57 c-3 -34 0 -38 20 -37 15
0 22 -5 22 -17 0 -10 8 -20 18 -22 9 -3 -26 -5 -78 -6 l-96 -1 4 40 c4 34 7
40 22 35 10 -3 22 0 27 7 6 11 44 33 61 37 2 1 2 -16 0 -36z m352 -83 c-10 -6
-11 -10 -2 -10 8 0 12 -16 12 -44 0 -26 -5 -46 -12 -49 -10 -3 -10 -9 0 -26 7
-13 10 -37 7 -56 -17 -114 -13 -105 -49 -105 -32 0 -34 2 -38 40 -2 22 -2 40
0 40 1 0 19 -7 39 -15 30 -13 34 -13 24 -1 -7 8 -25 17 -40 21 -45 10 -63 75
-45 165 7 31 8 32 48 26 26 -3 34 -2 21 3 -19 8 -18 9 5 13 41 8 46 8 30 -2z
m-792 -22 c-6 -18 -28 -21 -28 -4 0 9 7 16 16 16 9 0 14 -5 12 -12z m248 -2
c7 -17 -26 -71 -35 -58 -8 12 -101 12 -101 1 0 -5 23 -9 50 -9 41 0 50 -3 50
-17 1 -21 27 -59 35 -51 3 3 -1 11 -10 18 -20 17 -19 40 5 70 11 14 20 33 20
43 0 9 7 17 15 17 12 0 15 -14 15 -70 0 -81 -1 -85 -17 -84 -7 1 -13 -1 -13
-5 0 -3 -31 -6 -70 -6 -69 0 -70 0 -70 27 0 14 6 29 13 31 6 3 -9 6 -35 6 -27
1 -48 6 -48 11 0 6 11 10 25 10 14 0 25 5 25 11 0 17 -44 5 -58 -16 -13 -19
-13 -19 -8 3 4 19 1 23 -17 20 -14 -2 -22 -10 -22 -23 0 -20 4 -21 90 -26 20
-1 25 -7 25 -29 0 -34 -14 -46 -62 -53 -27 -4 -38 -2 -38 7 0 7 -11 22 -23 33
-32 27 -30 84 3 123 25 28 27 28 138 29 89 1 114 -2 118 -13z m134 2 c0 -10 2
-10 8 -1 5 8 30 12 65 12 45 -1 57 -4 58 -18 1 -14 2 -14 6 2 7 27 26 20 21
-8 -3 -13 -1 -22 3 -19 5 3 9 14 9 25 0 18 6 19 63 17 l62 -2 -3 -67 c-3 -39
1 -75 8 -89 6 -12 10 -23 8 -24 -2 -1 -40 0 -85 2 -82 4 -83 4 -83 31 0 30 48
84 70 79 7 -2 21 12 31 30 10 17 14 32 9 32 -6 0 -10 -4 -10 -10 0 -5 -11 -10
-25 -10 -18 0 -25 -5 -25 -19 0 -10 -11 -26 -24 -35 -24 -15 -25 -15 -31 14
-4 16 -11 33 -17 37 -7 4 -9 0 -5 -10 3 -10 2 -17 -2 -17 -5 0 -11 7 -15 15
-9 25 -26 17 -26 -12 0 -22 2 -25 10 -13 8 12 12 13 19 2 4 -8 12 -13 17 -12
5 0 10 -8 12 -18 3 -22 -21 -32 -80 -32 -32 0 -38 3 -39 23 l-2 22 -4 -23 c-4
-18 -10 -23 -31 -20 -25 3 -26 6 -28 66 l-2 62 29 0 c16 0 29 -5 29 -12z m220
-38 c0 -5 -5 -10 -11 -10 -5 0 -7 5 -4 10 3 6 8 10 11 10 2 0 4 -4 4 -10z
m-1673 -56 c29 -22 33 -31 28 -52 -7 -29 -35 -72 -35 -55 0 7 -9 10 -21 8 -32
-6 -36 -15 -7 -15 21 0 25 -4 23 -27 -3 -41 -4 -43 -21 -43 -12 0 -15 -6 -10
-25 5 -18 2 -25 -8 -25 -7 0 -16 -9 -19 -20 -4 -14 -11 -18 -24 -14 -15 5 -16
4 -3 -5 10 -7 11 -14 5 -18 -13 -9 -13 -23 -1 -43 5 -8 6 -12 1 -8 -4 4 -16 3
-26 -3 -11 -5 -19 -8 -19 -7 0 2 6 23 14 48 7 25 11 51 9 58 -3 6 0 12 7 12 6
0 8 5 5 10 -3 6 1 10 9 10 9 0 16 4 16 10 0 5 -6 7 -13 4 -8 -3 -13 3 -13 15
0 11 3 18 6 16 3 -2 14 18 24 43 10 26 29 58 42 72 21 23 21 27 8 50 -9 14
-13 17 -10 8 3 -10 1 -18 -4 -18 -6 0 -10 9 -10 20 0 26 6 25 47 -6z m908 -8
c19 -8 35 -18 35 -21 0 -3 -6 -3 -12 1 -10 6 -10 4 -1 -6 11 -12 15 -11 25 3
12 15 16 15 41 2 15 -8 25 -10 22 -5 -4 6 -3 10 0 10 8 0 41 -38 56 -64 10
-16 9 -18 -10 -13 -12 3 -19 2 -16 -3 6 -10 -101 -44 -114 -36 -5 4 -11 -1
-13 -9 -2 -9 -39 -30 -86 -50 -45 -18 -100 -48 -122 -65 -30 -24 -40 -28 -40
-16 0 18 -15 21 -25 6 -4 -7 -14 -5 -28 5 -12 8 -31 15 -42 14 -15 -1 -13 -3
8 -9 16 -5 35 -14 43 -21 13 -10 17 -10 23 0 6 10 9 9 14 -2 3 -9 -9 -35 -30
-61 l-36 -47 -24 23 -25 23 39 6 c34 6 32 6 -22 9 -33 1 -66 2 -72 1 -7 -1
-13 6 -13 15 0 16 -2 16 -15 -2 -14 -19 -14 -19 -15 3 0 12 -5 25 -11 29 -7 4
-9 -2 -7 -16 3 -20 -1 -23 -33 -23 -47 0 -59 8 -59 44 0 16 -4 29 -10 29 -13
0 -13 -12 0 -44 l10 -26 -115 0 -115 0 -2 33 -1 32 -4 -32 c-4 -29 -8 -32 -41
-35 -29 -2 -40 -9 -50 -30 -12 -26 -18 -28 -68 -28 -51 0 -54 1 -44 19 5 11
15 23 20 26 6 3 10 11 10 16 0 6 -4 8 -9 5 -18 -12 -4 27 22 59 16 20 24 40
21 49 -4 10 -1 16 9 16 11 0 19 13 23 38 10 53 33 86 50 71 8 -6 14 -19 14
-29 0 -10 9 -20 20 -23 15 -4 20 -14 21 -39 l2 -33 6 35 c5 31 10 35 39 38 35
4 45 22 11 22 -33 0 -16 25 19 28 32 3 41 15 22 27 -5 3 -10 2 -10 -4 0 -5
-12 -11 -28 -13 -21 -2 -27 -8 -26 -25 0 -13 -5 -23 -11 -23 -7 0 -11 15 -11
38 l1 37 142 2 142 1 16 -53 c8 -30 18 -68 22 -86 3 -17 13 -34 22 -37 9 -4
18 -14 19 -22 2 -8 0 -12 -4 -8 -4 4 -13 3 -21 -4 -11 -9 -12 -7 -7 8 4 14 3
15 -4 5 -7 -9 -12 -10 -16 -2 -4 6 -25 11 -47 11 -39 0 -39 0 -39 39 0 22 5
43 10 46 12 8 13 42 1 49 -4 3 -6 -7 -3 -22 3 -15 1 -24 -3 -20 -4 4 -7 23 -7
42 0 20 -4 36 -10 36 -5 0 -9 -19 -8 -42 2 -24 2 -62 1 -85 l-1 -43 -72 1
c-40 0 -67 3 -60 6 26 10 10 24 -25 22 -40 -4 -63 -19 -63 -41 1 -9 4 -9 13 3
7 8 22 18 35 21 29 8 29 0 -1 -11 -14 -6 27 -9 116 -10 111 -1 144 -5 165 -19
15 -9 30 -20 33 -25 11 -16 49 3 49 24 0 11 -4 18 -8 15 -5 -3 -9 1 -9 8 0 10
15 13 59 10 33 -3 58 0 58 5 0 6 -35 11 -77 13 -50 2 -78 7 -81 16 -2 7 2 10
12 6 9 -3 16 -1 16 5 0 6 -8 11 -19 11 -14 0 -21 13 -31 60 -7 33 -11 62 -9
64 4 3 387 52 427 55 12 0 38 -6 57 -13z m-805 -77 c0 -28 -4 -39 -15 -39 -8
0 -15 9 -15 20 0 10 -9 24 -20 30 -29 15 -15 37 20 32 27 -4 30 -8 30 -43z
m1080 -124 l0 -125 -41 0 c-41 0 -88 29 -61 38 16 5 16 62 0 62 -9 1 -7 5 3
13 11 8 14 19 9 32 -4 11 -3 23 2 26 4 3 -1 14 -13 25 -13 10 -19 13 -15 6 13
-22 15 -66 3 -80 -7 -9 -7 -16 1 -24 15 -15 16 -48 2 -48 -15 0 -12 -40 3 -41
6 0 -54 -23 -134 -50 l-147 -49 -41 39 c-23 22 -50 43 -61 46 -11 4 -20 10
-20 15 0 21 88 81 170 115 49 21 91 40 93 44 2 3 2 0 1 -6 -5 -20 34 -15 40 5
5 13 61 42 116 57 3 1 12 4 20 8 8 3 26 8 40 10 14 2 26 5 28 6 1 0 2 -55 2
-124z m468 119 c-10 -9 -58 -12 -58 -3 0 5 14 9 32 9 17 0 29 -3 26 -6z m114
-18 c11 -17 10 -58 -2 -51 -5 3 -10 15 -10 25 0 10 -10 26 -22 35 l-23 17 25
-7 c14 -4 28 -13 32 -19z m-477 -41 c-15 -19 -24 -39 -21 -44 4 -5 1 -13 -5
-17 -8 -5 -9 -3 -4 7 6 11 5 11 -4 3 -7 -7 -23 -34 -37 -60 l-23 -49 -1 92 0
92 58 4 c31 2 58 4 60 5 2 1 -9 -14 -23 -33z m115 4 c0 -4 3 -16 6 -26 4 -13
0 -11 -15 7 -25 30 -27 22 -4 -24 9 -19 20 -33 25 -30 12 7 -4 -30 -16 -38
-28 -19 -36 -7 -36 50 0 32 2 61 5 64 8 7 35 6 35 -3z m113 -76 c2 -12 1 -20
-4 -17 -4 2 -12 -4 -18 -13 -8 -15 -10 -10 -11 23 0 22 -6 46 -12 54 -7 7 -1
5 14 -6 14 -10 28 -29 31 -41z m-1081 -151 c-2 -15 1 -38 7 -52 8 -22 10 -18
10 28 l1 53 48 -3 c45 -3 47 -4 50 -35 2 -18 7 -33 12 -33 4 0 6 10 3 23 -5
21 -5 21 12 5 15 -14 16 -20 6 -32 -8 -9 -12 -33 -9 -56 2 -22 0 -40 -4 -40
-4 0 -9 17 -11 38 l-4 37 -1 -41 c-1 -28 -9 -47 -25 -62 l-23 -21 -67 108
c-37 59 -67 110 -67 112 0 3 15 3 33 1 30 -3 33 -7 29 -30z m273 8 c-3 -5 -10
-10 -16 -10 -5 0 -9 5 -9 10 0 6 7 10 16 10 8 0 12 -4 9 -10z m46 -32 c25 -31
24 -33 -20 -46 -52 -16 -51 -17 -51 22 0 49 38 62 71 24z m1233 -3 c19 -14 18
-15 -12 -15 -22 0 -32 5 -32 15 0 19 19 19 44 0z m-1163 -65 c5 0 9 -4 9 -10
0 -12 -47 -13 -54 -1 -8 12 6 22 22 16 7 -3 18 -5 23 -5z m-806 -166 c15 -24
15 -27 0 -51 l-17 -25 -22 21 c-18 17 -27 59 -17 79 6 12 42 -3 56 -24z m1616
-222 c-11 -21 -54 -69 -95 -106 -66 -59 -76 -72 -76 -101 0 -33 -2 -34 -42
-37 -24 -2 -43 -9 -46 -16 -3 -11 0 -12 16 -3 11 6 33 11 47 11 39 0 29 -30
-15 -45 -32 -10 -38 -9 -70 13 -26 19 -29 23 -12 19 12 -3 22 -3 22 -1 0 6
-53 28 -63 26 -9 -2 2 49 14 62 4 5 -1 16 -13 25 -25 21 -15 29 66 56 59 19
84 39 146 113 19 23 40 42 46 42 7 0 14 7 18 15 4 10 -1 15 -14 15 -25 0 -27
20 -2 21 16 0 16 1 0 7 -24 10 -11 27 42 55 l45 24 3 -78 c2 -62 -1 -86 -17
-117z m-1459 147 c-9 -23 -9 -23 -52 -8 -39 14 -29 29 20 29 36 0 39 -2 32
-21z m438 -47 c0 -4 -9 -8 -20 -9 -11 -1 -20 2 -20 8 0 5 9 9 20 9 11 0 20 -4
20 -8z m-519 -19 c13 -16 12 -17 -3 -4 -17 13 -22 21 -14 21 2 0 10 -8 17 -17z
m59 -78 c20 -24 6 -28 -15 -5 -10 11 -13 20 -8 20 6 0 16 -7 23 -15z m113 -56
c-3 -11 -9 -22 -14 -24 -14 -10 -19 13 -8 41 7 21 12 25 18 15 5 -7 6 -22 4
-32z m67 -210 c0 -6 -4 -7 -10 -4 -5 3 -10 11 -10 16 0 6 5 7 10 4 6 -3 10
-11 10 -16z m63 -19 c-3 -11 -12 -20 -19 -20 -8 0 -14 9 -14 20 0 13 7 20 19
20 14 0 18 -5 14 -20z m1732 -120 c-3 -5 -12 -10 -18 -10 -7 0 -6 4 3 10 19
12 23 12 15 0z m-1585 -8 c0 -5 -7 -9 -15 -9 -8 0 -15 4 -15 9 0 4 7 8 15 8 8
0 15 -4 15 -8z"/>
<path d="M2060 2101 c-8 -10 -24 -23 -35 -29 -14 -8 -15 -11 -5 -11 20 0 63
36 58 48 -1 6 -10 2 -18 -8z"/>
<path d="M1983 1964 c14 -5 17 -18 17 -90 l0 -84 -30 0 c-26 0 -30 -3 -29 -27
1 -23 2 -24 6 -6 3 15 13 23 31 25 l27 3 0 90 c0 82 -2 90 -20 92 -16 1 -16 1
-2 -3z"/>
<path d="M2130 1833 c-17 -6 -40 -32 -40 -45 0 -4 7 -8 16 -8 9 0 14 7 12 18
-2 11 6 21 22 29 25 11 18 16 -10 6z"/>
<path d="M2154 1811 c3 -5 15 -7 26 -4 28 7 25 13 -6 13 -14 0 -23 -4 -20 -9z"/>
<path d="M2041 1791 c-10 -7 -7 -9 12 -8 15 1 27 5 27 10 0 10 -22 9 -39 -2z"/>
<path d="M2080 1648 c0 -4 23 -8 50 -7 28 1 50 5 50 9 0 4 -22 7 -50 7 -27 0
-50 -4 -50 -9z"/>
<path d="M1860 1629 c0 -11 166 -7 177 5 4 3 -35 6 -85 6 -60 0 -92 -4 -92
-11z"/>
<path d="M1572 1439 c5 -15 78 -21 78 -7 0 4 -11 8 -24 8 -13 0 -32 3 -42 7
-12 4 -15 2 -12 -8z"/>
<path d="M1858 1413 c5 -25 6 -25 13 -8 11 29 10 35 -5 35 -9 0 -12 -8 -8 -27z"/>
<path d="M1894 1425 c3 -8 1 -15 -4 -15 -6 0 -10 -4 -10 -8 0 -12 44 -10 52 2
5 7 8 5 8 -4 0 -13 1 -13 10 0 5 8 10 22 10 30 0 12 -2 12 -9 1 -7 -11 -10
-11 -17 0 -6 10 -10 7 -15 -11 -7 -24 -7 -24 -8 -2 -1 12 -6 22 -12 22 -6 0
-9 -7 -5 -15z"/>
<path d="M1997 1369 c7 -7 15 -10 18 -7 3 3 -2 9 -12 12 -14 6 -15 5 -6 -5z"/>
<path d="M2071 1346 c2 -2 22 -6 44 -7 24 -2 43 -10 47 -19 5 -11 7 -9 7 8 1
20 -4 22 -51 22 -28 0 -49 -2 -47 -4z"/>
<path d="M390 1230 c19 -13 30 -13 30 0 0 6 -10 10 -22 10 -19 0 -20 -2 -8
-10z"/>
<path d="M371 1194 c0 -11 3 -14 6 -6 3 7 2 16 -1 19 -3 4 -6 -2 -5 -13z"/>
<path d="M810 1300 c-8 -5 -12 -11 -10 -14 3 -2 14 2 24 10 22 15 10 19 -14 4z"/>
<path d="M1474 1290 c0 -13 4 -16 10 -10 7 7 7 13 0 20 -6 6 -10 3 -10 -10z"/>
<path d="M673 1286 c4 -10 7 -24 7 -31 0 -18 47 -28 68 -15 15 10 15 10 -3 9
-43 -3 -55 1 -55 20 0 11 -5 23 -12 27 -8 5 -9 2 -5 -10z"/>
<path d="M1156 1255 c7 -17 2 -16 78 -18 36 -1 61 3 63 9 2 7 -7 12 -22 12
-14 0 -25 -6 -25 -12 0 -7 -3 -7 -8 2 -5 7 -22 10 -40 8 -17 -2 -29 1 -26 5 3
5 -2 9 -10 9 -10 0 -13 -6 -10 -15z"/>
<path d="M833 1185 c15 -14 33 -25 38 -25 6 0 -3 11 -19 25 -39 32 -56 32 -19
0z"/>
<path d="M1086 1193 c-3 -3 -6 -11 -6 -17 0 -6 5 -4 10 4 6 10 10 11 10 3 0
-9 19 -13 60 -13 34 0 60 4 60 10 0 6 -19 8 -47 6 -25 -3 -54 -1 -63 4 -10 5
-20 6 -24 3z"/>
<path d="M940 1180 c0 -6 25 -10 55 -10 30 0 58 0 62 -1 4 0 9 3 10 8 2 4 -26
9 -62 10 -38 2 -65 -1 -65 -7z"/>
<path d="M1070 1141 c0 -10 76 -8 87 2 3 4 -15 7 -40 7 -26 0 -47 -4 -47 -9z"/>
<path d="M977 1109 c7 -7 15 -10 18 -7 3 3 -2 9 -12 12 -14 6 -15 5 -6 -5z"/>
<path d="M1573 1243 c9 -2 25 -2 35 0 9 3 1 5 -18 5 -19 0 -27 -2 -17 -5z"/>
<path d="M1346 1103 c-9 -9 -7 -33 3 -33 12 0 22 28 12 34 -5 3 -11 3 -15 -1z"/>
<path d="M1376 1091 c-4 -7 -5 -15 -2 -18 9 -9 19 4 14 18 -4 11 -6 11 -12 0z"/>
<path d="M1411 1091 c-7 -5 -11 -15 -9 -22 3 -10 8 -7 17 9 13 24 12 26 -8 13z"/>
<path d="M432 728 c7 -15 15 -23 17 -17 2 6 -4 18 -13 27 -15 15 -15 15 -4
-10z"/>
<path d="M425 690 c10 -11 20 -20 23 -20 3 0 -3 9 -13 20 -10 11 -20 20 -23
20 -3 0 3 -9 13 -20z"/>
<path d="M1825 230 c-3 -5 1 -10 9 -10 9 0 16 5 16 10 0 6 -4 10 -9 10 -6 0
-13 -4 -16 -10z"/>
<path d="M213 2253 c133 -2 217 -7 217 -13 0 -6 4 -10 8 -10 5 0 9 7 9 15 0
13 -31 15 -226 13 l-226 -3 218 -2z"/>
<path d="M470 2249 c-12 -8 -10 -9 8 -4 21 6 23 5 13 -13 -15 -28 -14 -35 4
-29 8 4 17 2 20 -3 3 -4 1 -10 -4 -12 -5 -1 -3 -12 5 -23 14 -19 15 -19 10 10
-2 17 -5 34 -5 39 -1 4 -8 5 -17 2 -14 -5 -15 -4 -5 8 7 8 10 20 6 26 -8 13
-16 13 -35 -1z"/>
<path d="M520 2245 c0 -8 7 -15 16 -15 8 0 13 -4 10 -9 -8 -12 42 -44 74 -49
19 -2 14 3 -17 18 -23 12 -45 30 -48 40 -7 23 -35 35 -35 15z"/>
<path d="M1558 2253 c6 -2 18 -2 25 0 6 3 1 5 -13 5 -14 0 -19 -2 -12 -5z"/>
<path d="M1747 2228 c-10 -18 -32 -52 -51 -75 -19 -23 -36 -47 -38 -54 -2 -6
-25 -11 -55 -11 -48 0 -51 -2 -67 -35 -9 -19 -11 -31 -5 -28 6 4 14 17 18 29
7 17 17 21 55 22 l46 1 0 -39 c0 -30 -3 -39 -14 -35 -7 3 -19 0 -25 -6 -8 -8
-11 -8 -11 2 0 7 -4 9 -10 6 -23 -14 -8 -27 26 -23 l36 4 -6 -59 c-4 -32 -9
-64 -12 -71 -2 -6 4 -12 16 -13 11 -1 20 2 20 8 0 5 -4 9 -8 9 -8 0 -6 189 3
227 3 12 23 43 45 68 43 50 76 105 62 105 -5 0 -16 -15 -25 -32z"/>
<path d="M1796 2245 c8 -23 9 -49 3 -85 -4 -23 -1 -25 39 -26 30 -2 42 1 42
12 0 17 -5 17 -31 4 -13 -8 -19 -7 -19 0 0 6 -5 8 -10 5 -7 -4 -8 7 -5 32 5
27 2 44 -10 58 -17 20 -17 20 -9 0z"/>
<path d="M1352 2218 c2 -13 8 -23 13 -23 6 0 11 10 13 23 2 15 -2 22 -13 22
-11 0 -15 -7 -13 -22z"/>
<path d="M2087 2218 c-5 -19 -4 -21 6 -8 7 8 21 14 32 14 62 -5 70 -6 53 -11
-26 -7 -23 -41 5 -45 17 -2 23 -11 25 -36 l3 -33 92 3 92 3 3 38 c2 28 0 37
-12 37 -9 0 -16 9 -16 20 0 19 7 20 96 20 l95 0 -26 -35 c-15 -19 -36 -37 -47
-41 -14 -4 -17 -9 -9 -13 7 -5 3 -12 -14 -19 -14 -6 -26 -18 -26 -27 -1 -8 -2
-21 -3 -27 -1 -8 -15 -13 -34 -13 -17 0 -32 -3 -32 -7 0 -12 45 -10 77 3 23 9
25 12 10 18 -16 6 -16 8 -2 29 9 12 23 22 32 22 9 0 13 6 9 15 -3 8 0 15 7 15
10 1 79 81 74 87 -1 1 -50 3 -107 4 l-105 2 -3 -32 c-2 -23 1 -31 12 -31 11 0
16 -9 16 -30 l0 -30 -85 0 -85 0 0 35 c0 31 -3 35 -25 35 -14 0 -25 5 -25 10
0 6 11 10 25 10 40 0 30 27 -12 34 -70 11 -90 8 -96 -16z"/>
<path d="M600 2156 c0 -2 7 -6 15 -10 8 -3 15 -1 15 4 0 6 -7 10 -15 10 -8 0
-15 -2 -15 -4z"/>
<path d="M805 2142 c-6 -4 -19 -20 -28 -37 -18 -30 -18 -30 10 3 l28 33 12
-30 c6 -17 7 -33 3 -36 -8 -5 -40 -63 -40 -73 0 -3 13 13 30 36 28 40 29 42
15 76 -17 40 -16 39 -30 28z"/>
<path d="M450 2126 c0 -11 8 -15 25 -14 23 2 37 18 16 18 -5 0 -16 3 -25 6
-11 4 -16 1 -16 -10z"/>
<path d="M523 2133 c-20 -7 -15 -19 7 -20 11 -1 20 2 20 7 0 12 -13 18 -27 13z"/>
<path d="M560 2123 c0 -9 11 -12 34 -9 19 2 36 0 38 -5 2 -5 9 -4 18 1 21 13
9 20 -43 23 -33 2 -47 -1 -47 -10z"/>
<path d="M670 2126 c0 -9 5 -16 10 -16 6 0 10 4 10 9 0 6 -4 13 -10 16 -5 3
-10 -1 -10 -9z"/>
<path d="M1110 2109 c0 -5 8 -9 18 -9 9 -1 47 -2 85 -3 41 -1 66 2 64 8 -4 12
-167 16 -167 4z"/>
<path d="M1281 2081 c-10 -6 -9 -12 4 -25 9 -9 22 -16 30 -16 8 0 11 -7 8 -20
-6 -23 12 -27 21 -5 9 24 -4 45 -26 42 -12 -1 -23 5 -26 13 -5 13 -3 13 11 1
10 -7 17 -9 17 -3 0 14 -24 22 -39 13z"/>
<path d="M950 2037 c0 -13 7 -17 30 -15 32 2 39 12 15 21 -8 4 -17 1 -21 -5
-4 -7 -9 -6 -15 3 -7 11 -9 10 -9 -4z"/>
<path d="M2185 2029 c-4 -6 -4 -13 -1 -16 3 -4 6 -1 6 6 0 7 5 9 10 6 6 -3 10
-1 10 4 0 14 -17 14 -25 0z"/>
<path d="M2217 2020 c-16 -19 -16 -20 4 -20 14 0 19 5 16 15 -5 11 7 15 61 18
l67 3 -65 2 c-55 2 -68 -1 -83 -18z"/>
<path d="M810 2001 c0 -5 11 -8 25 -7 38 4 43 16 7 16 -18 0 -32 -4 -32 -9z"/>
<path d="M343 1974 c-3 -8 -1 -20 4 -25 7 -7 11 -2 11 15 0 29 -6 33 -15 10z"/>
<path d="M2197 1973 c17 -3 23 -13 26 -41 l4 -37 1 43 c2 40 1 42 -25 41 -23
-1 -24 -2 -6 -6z"/>
<path d="M1560 1960 c0 -5 7 -10 15 -10 8 0 15 5 15 10 0 6 -7 10 -15 10 -8 0
-15 -4 -15 -10z"/>
<path d="M353 1883 c-1 -26 1 -33 7 -23 12 18 13 60 3 60 -5 0 -9 -17 -10 -37z"/>
<path d="M1691 1888 c-1 -14 7 -18 34 -18 19 0 35 5 35 11 0 7 -12 10 -30 7
-16 -2 -32 0 -34 6 -2 6 -5 3 -5 -6z"/>
<path d="M1703 1852 c-13 -2 -23 -7 -23 -11 0 -9 66 -8 75 1 8 8 -26 14 -52
10z"/>
<path d="M377 1843 c-2 -4 -7 -24 -11 -45 -6 -31 -3 -39 20 -57 27 -21 70 -29
59 -11 -3 5 -12 7 -19 4 -8 -3 -17 -1 -21 5 -14 23 52 11 75 -14 26 -28 62
-37 40 -10 -7 9 -15 13 -17 11 -3 -3 -14 4 -26 15 -11 10 -34 19 -50 19 -28 0
-29 2 -25 42 2 25 -2 43 -9 45 -6 2 -13 0 -16 -4z m18 -48 c0 -44 -8 -58 -18
-32 -6 16 3 77 12 77 4 0 6 -20 6 -45z"/>
<path d="M430 1836 c0 -8 13 -13 35 -13 19 0 35 4 35 9 0 4 -3 8 -7 9 -5 0
-20 2 -35 4 -18 2 -28 -1 -28 -9z"/>
<path d="M1217 1843 c-17 -16 -2 -21 68 -21 41 0 75 4 75 8 0 11 -54 20 -60
11 -5 -9 -24 -7 -57 3 -11 3 -22 3 -26 -1z"/>
<path d="M1380 1830 c0 -5 5 -10 10 -10 6 0 10 5 10 10 0 6 -4 10 -10 10 -5 0
-10 -4 -10 -10z"/>
<path d="M1750 1820 c0 -5 7 -10 16 -10 8 0 12 5 9 10 -3 6 -10 10 -16 10 -5
0 -9 -4 -9 -10z"/>
<path d="M1710 1809 c0 -5 5 -7 10 -4 6 3 10 8 10 11 0 2 -4 4 -10 4 -5 0 -10
-5 -10 -11z"/>
<path d="M565 1790 c-14 -15 -15 -23 -6 -34 6 -7 8 -22 5 -32 -6 -16 -5 -17 7
-6 10 9 11 17 3 30 -8 13 -7 23 4 40 18 27 11 29 -13 2z"/>
<path d="M2481 1783 c-6 -13 -11 -29 -11 -36 1 -7 7 2 15 20 13 32 15 32 64
26 32 -4 51 -2 51 4 0 6 -24 11 -54 11 -47 0 -55 -3 -65 -25z"/>
<path d="M450 1790 c0 -5 5 -10 10 -10 6 0 10 5 10 10 0 6 -4 10 -10 10 -5 0
-10 -4 -10 -10z"/>
<path d="M482 1795 c10 -11 45 -13 59 -4 10 6 2 9 -25 9 -22 0 -37 -2 -34 -5z"/>
<path d="M2550 1769 c0 -3 32 -7 72 -8 39 -1 75 -3 79 -4 4 -1 7 2 8 6 1 5
-35 9 -79 10 -44 1 -80 -1 -80 -4z"/>
<path d="M483 1763 c9 -2 25 -2 35 0 9 3 1 5 -18 5 -19 0 -27 -2 -17 -5z"/>
<path d="M2525 1759 c-4 -6 -5 -12 -2 -15 2 -3 7 2 10 11 7 17 1 20 -8 4z"/>
<path d="M2410 1740 c0 -5 5 -10 10 -10 6 0 10 5 10 10 0 6 -4 10 -10 10 -5 0
-10 -4 -10 -10z"/>
<path d="M1457 1733 c-17 -16 -1 -21 83 -21 55 -1 90 3 90 9 0 6 -15 9 -33 8
-18 -2 -37 0 -43 3 -5 4 -27 3 -47 -2 -21 -4 -35 -4 -31 1 6 10 -9 12 -19 2z"/>
<path d="M1692 1717 c-19 -20 -20 -25 -8 -30 18 -7 39 16 34 38 -2 14 -7 13
-26 -8z m10 -19 c-7 -7 -12 -8 -12 -2 0 6 3 14 7 17 3 4 9 5 12 2 2 -3 -1 -11
-7 -17z"/>
<path d="M2521 1720 c-8 -4 -21 -6 -29 -2 -10 3 -13 1 -8 -6 4 -6 23 -11 42
-10 36 1 52 12 34 23 -5 3 -10 0 -10 -7 0 -10 -2 -10 -8 -1 -5 7 -13 9 -21 3z"/>
<path d="M1210 1673 c0 -9 9 -14 23 -13 38 3 47 1 47 -15 0 -8 5 -15 11 -15 6
0 9 9 6 19 -4 17 -1 19 28 14 19 -3 35 0 39 6 5 7 -3 11 -21 11 -15 1 -52 2
-80 4 -41 3 -53 0 -53 -11z"/>
<path d="M489 1638 c-2 -39 -9 -118 -13 -155 -2 -24 0 -43 5 -43 5 0 10 17 11
38 2 61 5 86 12 124 4 22 2 39 -4 43 -5 3 -10 0 -11 -7z"/>
<path d="M411 1633 c-1 -6 -4 -20 -7 -30 -5 -17 -5 -17 6 0 6 10 9 23 6 30 -3
9 -5 9 -5 0z"/>
<path d="M2735 1620 c-3 -5 -17 -10 -31 -10 -14 0 -79 -18 -144 -40 -65 -22
-142 -45 -172 -52 -46 -10 -50 -12 -28 -19 l25 -7 -24 -1 c-13 -1 -22 -4 -19
-7 3 -3 23 -2 44 2 33 6 36 8 19 16 -14 6 -10 7 15 3 40 -5 62 0 210 45 116
35 114 35 250 27 l95 -6 -95 12 c-82 10 -95 14 -92 30 3 12 -3 17 -22 17 -14
0 -28 -4 -31 -10z m35 -10 c0 -5 -5 -10 -11 -10 -5 0 -7 5 -4 10 3 6 8 10 11
10 2 0 4 -4 4 -10z m-30 -10 c0 -5 -19 -14 -42 -20 -24 -6 -77 -21 -118 -34
-41 -14 -93 -27 -115 -30 l-40 -6 45 14 c25 7 63 21 85 30 22 10 72 26 110 36
39 10 71 19 73 19 1 1 2 -3 2 -9z"/>
<path d="M2800 1610 c0 -6 35 -10 85 -10 50 0 85 4 85 10 0 6 -35 10 -85 10
-50 0 -85 -4 -85 -10z"/>
<path d="M1670 1590 c0 -5 5 -10 10 -10 6 0 10 5 10 10 0 6 -4 10 -10 10 -5 0
-10 -4 -10 -10z"/>
<path d="M55 1551 c-9 -15 3 -31 23 -31 14 0 15 2 2 10 -8 5 -11 13 -6 17 4 4
14 -1 23 -12 15 -20 15 -20 11 0 -4 22 -42 33 -53 16z"/>
<path d="M388 1503 c-3 -32 -2 -67 2 -78 6 -15 8 -12 8 15 -1 19 1 54 5 78 3
23 2 42 -3 42 -4 0 -10 -26 -12 -57z"/>
<path d="M525 1522 c3 -20 -2 -46 -11 -63 -8 -17 -13 -40 -11 -52 3 -17 5 -15
6 8 2 26 3 27 11 10 7 -17 9 -15 9 13 1 28 4 32 24 31 12 -1 41 -1 65 -1 32 2
42 6 43 20 0 13 2 14 6 2 8 -18 44 -49 60 -50 6 0 14 -6 16 -12 4 -10 6 -10 6
-1 1 7 -9 18 -21 24 -29 16 -48 35 -48 48 0 6 -7 11 -15 11 -8 0 -15 -6 -15
-14 0 -9 -14 -15 -38 -18 -51 -4 -72 1 -72 18 0 20 21 26 85 27 53 1 70 9 41
20 -7 3 -29 2 -47 -2 -19 -4 -42 -7 -51 -5 -9 1 -20 -5 -24 -14 -6 -14 -8 -13
-15 8 -7 21 -8 20 -4 -8z"/>
<path d="M1598 1493 c7 -3 16 -2 19 1 4 3 -2 6 -13 5 -11 0 -14 -3 -6 -6z"/>
<path d="M63 1474 c-6 -16 12 -34 35 -34 19 0 14 10 -10 20 -23 9 -23 9 2 10
20 0 22 2 10 10 -21 14 -30 12 -37 -6z"/>
<path d="M803 1475 c-3 -9 -3 -19 1 -22 3 -4 6 -1 6 5 0 7 7 12 15 12 8 0 15
5 15 10 0 16 -30 12 -37 -5z"/>
<path d="M1182 1470 c4 -13 68 -67 68 -58 0 3 -16 20 -36 38 -20 18 -35 27
-32 20z"/>
<path d="M925 1450 c3 -5 10 -10 16 -10 5 0 9 5 9 10 0 6 -7 10 -16 10 -8 0
-12 -4 -9 -10z"/>
<path d="M960 1448 c0 -4 11 -8 24 -8 13 0 32 -3 42 -7 12 -4 15 -2 12 8 -5
15 -78 22 -78 7z"/>
<path d="M1262 1449 c5 -16 78 -25 78 -10 0 6 -11 11 -24 11 -13 0 -32 3 -42
7 -12 4 -15 2 -12 -8z"/>
<path d="M1363 1453 c-18 -7 -16 -23 2 -23 8 0 15 7 15 15 0 8 -1 15 -2 14 -2
0 -9 -3 -15 -6z"/>
<path d="M812 1435 c-10 -12 -10 -15 2 -15 7 0 16 7 20 15 7 19 -5 19 -22 0z"/>
<path d="M1395 1431 c-6 -11 9 -23 19 -14 9 9 7 23 -3 23 -6 0 -12 -4 -16 -9z"/>
<path d="M892 1418 c-14 -14 -16 -32 -3 -24 17 11 18 -18 1 -34 -9 -8 -10 -11
-3 -7 6 5 17 6 22 3 5 -4 13 -1 17 5 3 6 1 15 -6 19 -7 4 -9 13 -6 19 4 6 1
11 -6 11 -9 0 -9 3 2 10 8 5 10 10 5 10 -6 0 -16 -5 -23 -12z"/>
<path d="M950 1415 c0 -6 23 -12 50 -12 65 -3 65 14 0 19 -30 2 -50 -1 -50 -7z"/>
<path d="M1097 1413 c-13 -12 -7 -33 8 -33 8 0 15 9 15 20 0 20 -11 26 -23 13z"/>
<path d="M1131 1403 c-1 -17 5 -23 19 -23 14 0 20 7 20 21 0 17 -3 19 -14 10
-11 -9 -15 -9 -19 1 -3 7 -6 3 -6 -9z"/>
<path d="M1266 1413 c-13 -13 -5 -19 29 -20 27 -1 35 3 34 15 0 10 -3 12 -5 5
-4 -8 -13 -9 -29 -3 -12 5 -26 6 -29 3z"/>
<path d="M1340 1408 c0 -6 8 -7 18 -4 14 5 14 4 -2 -9 -21 -16 -10 -21 14 -5
8 5 11 12 7 16 -12 12 -37 13 -37 2z"/>
<path d="M60 1393 c0 -15 2 -15 9 -4 5 8 16 11 25 8 9 -4 16 -2 16 3 0 6 -11
10 -25 10 -17 0 -25 -5 -25 -17z"/>
<path d="M527 1393 c-15 -15 -6 -33 17 -33 19 0 23 4 19 20 -5 20 -23 26 -36
13z m23 -13 c0 -5 -4 -10 -10 -10 -5 0 -10 5 -10 10 0 6 5 10 10 10 6 0 10 -4
10 -10z"/>
<path d="M580 1381 c0 -18 6 -20 45 -18 36 1 45 5 45 19 0 20 -15 24 -26 6 -5
-7 -3 -8 6 -3 9 6 11 4 5 -5 -7 -11 -10 -10 -19 1 -6 8 -21 15 -33 17 -17 2
-23 -2 -23 -17z m30 -1 c0 -5 -4 -10 -10 -10 -5 0 -10 5 -10 10 0 6 5 10 10
10 6 0 10 -4 10 -10z"/>
<path d="M685 1392 c-13 -13 -3 -28 19 -30 19 -1 23 2 19 17 -4 16 -27 24 -38
13z"/>
<path d="M730 1386 c0 -8 5 -18 10 -21 6 -3 10 1 10 9 0 8 -4 18 -10 21 -5 3
-10 -1 -10 -9z"/>
<path d="M758 1378 c5 -21 6 -21 13 -2 7 16 8 17 8 2 1 -10 5 -18 11 -18 5 0
7 7 4 15 -4 8 -1 15 5 15 6 0 11 -6 11 -13 0 -8 7 -14 15 -14 8 0 15 9 15 19
0 15 -8 18 -44 18 -41 0 -44 -2 -38 -22z"/>
<path d="M490 1365 c0 -8 4 -15 10 -15 5 0 7 7 4 15 -4 8 -8 15 -10 15 -2 0
-4 -7 -4 -15z"/>
<path d="M73 1335 c9 -9 21 -14 26 -11 5 4 12 0 15 -6 3 -7 5 -4 3 7 -1 14
-11 21 -31 23 -27 3 -28 2 -13 -13z"/>
<path d="M1926 1305 c-3 -9 1 -18 10 -22 21 -8 25 -1 9 20 -11 15 -13 16 -19
2z"/>
<path d="M1962 1291 c10 -17 24 -18 52 -3 12 7 -16 22 -42 22 -19 0 -21 -2
-10 -19z m35 3 c-3 -3 -12 -4 -19 -1 -8 3 -5 6 6 6 11 1 17 -2 13 -5z"/>
<path d="M1950 1257 c0 -10 8 -17 18 -17 9 0 13 4 7 8 -5 4 -13 11 -17 16 -5
5 -8 2 -8 -7z"/>
<path d="M1993 1252 c1 -23 18 -25 25 -2 3 7 0 10 -6 6 -6 -3 -12 0 -15 6 -3
7 -4 3 -4 -10z"/>
<path d="M2420 1255 c0 -8 20 -12 65 -12 35 0 62 3 60 7 -7 12 -44 19 -50 10
-3 -4 -21 -4 -40 0 -25 6 -35 5 -35 -5z"/>
<path d="M2595 1260 c-3 -5 -1 -11 4 -14 5 -4 12 -2 15 3 4 5 18 8 31 5 14 -2
36 -6 50 -8 15 -3 25 0 25 7 0 14 -116 21 -125 7z"/>
<path d="M2130 1220 c0 -5 5 -10 10 -10 6 0 10 5 10 10 0 6 -4 10 -10 10 -5 0
-10 -4 -10 -10z"/>
<path d="M2623 1223 c64 -2 170 -2 235 0 64 1 11 3 -118 3 -129 0 -182 -2
-117 -3z"/>
<path d="M94 1065 c-8 -20 4 -35 26 -35 25 0 35 17 20 35 -16 19 -39 19 -46 0z
m38 -17 c-9 -9 -15 -9 -24 0 -9 9 -7 12 12 12 19 0 21 -3 12 -12z"/>
<path d="M1905 1061 c-9 -15 15 -25 28 -12 9 9 7 10 -7 5 -13 -5 -17 -4 -12 4
4 7 5 12 2 12 -3 0 -7 -4 -11 -9z"/>
<path d="M2530 1030 c0 -5 5 -10 10 -10 6 0 10 5 10 10 0 6 -4 10 -10 10 -5 0
-10 -4 -10 -10z"/>
<path d="M1760 1013 c0 -15 21 -13 32 2 5 6 8 6 8 -2 0 -7 23 -11 70 -10 39 1
70 -2 70 -7 0 -5 6 -3 13 3 8 6 17 8 20 4 4 -3 7 -1 7 5 0 15 -17 24 -24 13
-3 -5 -21 -6 -38 -2 -41 8 -49 8 -67 -3 -9 -6 -12 -5 -8 1 4 6 -11 10 -38 9
-30 0 -45 -5 -45 -13z"/>
<path d="M1520 1000 c0 -7 -7 -10 -16 -6 -9 3 -12 2 -9 -5 4 -5 15 -7 24 -4
15 4 18 0 15 -22 -3 -31 -36 -63 -65 -63 -13 0 -19 -7 -19 -24 0 -13 -3 -31
-6 -40 -3 -9 -1 -16 5 -16 6 0 10 3 10 8 -7 40 3 59 35 70 45 16 69 79 39 103
-10 9 -13 8 -13 -1z"/>
<path d="M100 991 c0 -10 14 -13 36 -10 4 0 11 -5 16 -13 7 -9 8 -8 6 7 -2 13
-12 21 -31 23 -15 2 -27 -1 -27 -7z"/>
<path d="M595 979 c5 -14 4 -19 -4 -15 -6 4 -9 2 -5 -7 2 -7 1 -25 -5 -39 -5
-15 -6 -30 0 -39 6 -10 9 -7 9 12 0 15 6 32 13 38 15 12 11 71 -5 71 -5 0 -6
-10 -3 -21z"/>
<path d="M1902 970 c0 -14 2 -19 5 -12 2 6 2 18 0 25 -3 6 -5 1 -5 -13z"/>
<path d="M1940 964 c0 -16 -2 -17 -10 -4 -7 11 -8 6 -4 -18 6 -27 4 -31 -10
-26 -9 3 -16 2 -16 -4 0 -6 8 -9 17 -8 17 3 40 62 29 74 -3 3 -6 -3 -6 -14z"/>
<path d="M2617 936 c-3 -7 -15 -12 -28 -11 -30 2 -58 -23 -52 -46 4 -15 8 -17
19 -8 8 6 14 18 14 25 0 8 5 14 11 14 5 0 7 -4 4 -10 -10 -17 7 -11 20 7 8 10
17 13 26 7 18 -11 39 -14 39 -6 0 4 -11 15 -24 24 -19 14 -25 15 -29 4z"/>
<path d="M301 914 c0 -11 3 -14 6 -6 3 7 2 16 -1 19 -3 4 -6 -2 -5 -13z"/>
<path d="M1070 880 c-14 -11 -20 -20 -15 -20 6 0 21 9 35 20 14 11 21 20 15
20 -5 0 -21 -9 -35 -20z"/>
<path d="M2139 877 c13 -13 91 -21 91 -9 0 5 -22 12 -50 14 -27 1 -45 -1 -41
-5z"/>
<path d="M1840 862 c0 -22 52 -23 58 -1 3 11 1 11 -7 -1 -8 -11 -11 -12 -11
-2 0 7 -4 10 -10 7 -5 -3 -10 -1 -10 4 0 6 -4 11 -10 11 -5 0 -10 -8 -10 -18z"/>
<path d="M1185 860 c-4 -6 -11 -7 -17 -4 -7 4 -8 2 -4 -4 5 -9 12 -8 27 1 17
10 22 9 35 -7 8 -11 14 -15 14 -10 0 26 -42 44 -55 24z"/>
<path d="M885 840 c3 -5 8 -10 11 -10 2 0 4 5 4 10 0 6 -5 10 -11 10 -5 0 -7
-4 -4 -10z"/>
<path d="M1973 833 c-21 -8 -15 -22 7 -16 11 3 20 9 20 14 0 10 -8 10 -27 2z"/>
<path d="M2018 833 c7 -3 16 -2 19 1 4 3 -2 6 -13 5 -11 0 -14 -3 -6 -6z"/>
<path d="M1206 823 c-11 -11 -6 -21 13 -26 14 -3 21 -15 23 -38 2 -27 8 -34
26 -35 18 -1 19 -1 2 3 -15 3 -20 12 -20 34 0 22 4 28 13 23 7 -5 7 -2 -2 10
-18 22 -47 37 -55 29z"/>
<path d="M1886 778 c-11 -43 -4 -64 8 -24 8 26 15 35 20 27 4 -6 2 -18 -4 -26
-10 -12 -10 -15 1 -15 11 0 11 -3 -1 -11 -13 -9 -13 -10 0 -6 21 5 20 71 -1
75 -10 2 -19 -6 -23 -20z"/>
<path d="M583 768 c-2 -5 -1 -8 4 -7 22 4 32 -2 27 -16 -9 -22 3 -46 19 -39
22 8 -2 73 -26 71 -10 -1 -21 -5 -24 -9z m44 -50 c-3 -8 -6 -5 -6 6 -1 11 2
17 5 13 3 -3 4 -12 1 -19z"/>
<path d="M885 770 c-3 -5 -1 -10 4 -10 6 0 11 5 11 10 0 6 -2 10 -4 10 -3 0
-8 -4 -11 -10z"/>
<path d="M1260 761 c0 -10 19 -25 25 -20 1 2 -3 10 -11 17 -8 7 -14 8 -14 3z"/>
<path d="M801 738 c-1 -15 6 -17 52 -14 72 5 77 8 37 15 -19 4 -45 4 -57 0
-14 -5 -23 -4 -27 4 -2 7 -5 4 -5 -5z"/>
<path d="M930 735 c0 -8 5 -15 10 -15 6 0 10 7 10 15 0 8 -4 15 -10 15 -5 0
-10 -7 -10 -15z"/>
<path d="M657 733 c-3 -5 -1 -17 4 -28 4 -11 8 -15 8 -8 1 6 4 18 7 27 6 16
-11 23 -19 9z"/>
<path d="M179 719 c16 -6 28 -6 35 1 7 7 -1 10 -24 9 -33 0 -34 -1 -11 -10z"/>
<path d="M886 701 c-4 -7 -5 -15 -2 -18 9 -9 19 4 14 18 -4 11 -6 11 -12 0z"/>
<path d="M190 690 c-12 -8 -11 -10 7 -10 12 0 25 5 28 10 8 13 -15 13 -35 0z"/>
<path d="M1064 689 c-3 -6 -1 -15 6 -19 10 -6 9 -9 -1 -13 -10 -4 -8 -6 4 -6
14 -1 17 4 12 19 -4 11 -2 20 4 20 6 0 11 -9 11 -20 0 -11 5 -20 10 -20 6 0
11 -24 12 -52 l2 -53 3 48 c3 28 -1 55 -8 63 -9 11 -9 17 1 29 11 13 8 15 -18
15 -17 0 -34 -5 -38 -11z"/>
<path d="M1140 673 c0 -23 2 -25 11 -13 8 11 12 12 16 3 2 -7 12 -13 21 -13
15 0 15 2 2 10 -11 7 -11 10 -2 10 7 0 10 5 7 10 -3 6 -2 10 4 10 5 0 11 -10
13 -22 3 -21 4 -21 9 5 5 22 3 27 -13 27 -11 0 -29 -5 -40 -11 -15 -8 -19 -8
-14 0 4 6 2 11 -3 11 -6 0 -11 -12 -11 -27z"/>
<path d="M1240 676 c0 -22 4 -24 60 -25 53 0 60 2 60 19 0 28 -17 34 -30 10
-11 -20 -40 -28 -40 -10 0 5 6 7 13 4 8 -3 14 1 14 8 0 7 -11 14 -24 14 -16 1
-23 -3 -23 -17 0 -10 -4 -19 -9 -19 -6 0 -8 9 -6 20 2 11 0 20 -6 20 -5 0 -9
-11 -9 -24z"/>
<path d="M1371 678 c-1 -19 4 -28 14 -28 10 0 15 9 14 28 -2 27 -2 27 -7 2
l-5 -25 -8 25 -7 25 -1 -27z"/>
<path d="M1410 676 c0 -17 7 -21 35 -23 25 -1 35 2 35 13 0 8 -5 14 -11 14 -5
0 -7 -4 -4 -10 3 -5 1 -10 -4 -10 -17 0 -13 18 6 29 13 7 9 9 -20 8 -30 -1
-37 -5 -37 -21z m28 -11 c-3 -3 -9 2 -12 12 -6 14 -5 15 5 6 7 -7 10 -15 7
-18z"/>
<path d="M818 663 c12 -2 30 -2 40 0 9 3 -1 5 -23 4 -22 0 -30 -2 -17 -4z"/>
<path d="M880 605 c0 -37 4 -65 10 -65 6 0 10 28 10 65 0 37 -4 65 -10 65 -6
0 -10 -28 -10 -65z"/>
<path d="M918 663 c6 -2 18 -2 25 0 6 3 1 5 -13 5 -14 0 -19 -2 -12 -5z"/>
<path d="M1860 649 c0 -5 5 -7 10 -4 6 3 10 8 10 11 0 2 -4 4 -10 4 -5 0 -10
-5 -10 -11z"/>
<path d="M190 636 c0 -8 5 -18 10 -21 6 -3 10 2 10 12 0 15 2 16 10 3 9 -13
10 -13 10 0 0 13 1 13 10 0 8 -13 10 -12 10 3 0 12 -8 17 -30 17 -19 0 -30 -5
-30 -14z"/>
<path d="M1244 618 c-13 -45 -58 -52 -76 -13 -8 18 -14 22 -19 13 -11 -17 19
-48 46 -48 27 0 51 19 60 48 3 12 4 22 1 22 -2 0 -8 -10 -12 -22z"/>
<path d="M1534 600 c0 -11 3 -20 7 -20 4 0 9 9 12 20 3 12 0 20 -7 20 -6 0
-12 -9 -12 -20z"/>
<path d="M1567 603 c-12 -11 -8 -23 8 -23 8 0 15 7 15 15 0 16 -12 20 -23 8z"/>
<path d="M1600 593 c0 -15 2 -16 10 -3 6 10 10 11 10 3 0 -7 5 -13 11 -13 5 0
7 5 3 12 -4 7 -3 8 4 4 7 -4 12 -2 12 3 0 6 -11 11 -25 11 -17 0 -25 -5 -25
-17z"/>
<path d="M1655 593 c-10 -26 -6 -36 10 -23 8 7 12 17 8 24 -3 6 0 6 8 -1 17
-17 39 -16 39 0 0 18 -58 18 -65 0z"/>
<path d="M255 590 c-4 -6 -16 -8 -28 -4 -19 6 -20 5 -10 -8 7 -8 10 -18 6 -21
-3 -4 -1 -7 5 -7 7 0 12 5 12 11 0 6 10 8 23 5 12 -3 17 -3 10 0 -7 3 -9 12
-6 20 6 16 -3 19 -12 4z"/>
<path d="M600 582 c0 -5 14 -9 30 -10 17 0 30 4 30 9 0 5 -13 9 -30 9 -16 0
-30 -4 -30 -8z"/>
<path d="M640 551 c0 -6 5 -13 10 -16 6 -4 7 -11 4 -17 -4 -7 -2 -8 4 -4 9 5
9 13 2 27 -11 20 -20 25 -20 10z"/>
<path d="M1142 533 c2 -12 12 -18 28 -18 16 0 26 6 28 18 3 13 -3 17 -28 17
-25 0 -31 -4 -28 -17z m48 -1 c0 -4 -9 -8 -20 -9 -11 -1 -20 2 -20 5 0 4 9 8
20 9 11 1 20 -2 20 -5z"/>
<path d="M245 520 c-8 -13 15 -13 35 0 12 8 11 10 -7 10 -12 0 -25 -4 -28 -10z"/>
<path d="M1142 475 c2 -14 11 -20 28 -20 17 0 26 6 28 20 2 16 -3 20 -28 20
-25 0 -30 -4 -28 -20z m48 -4 c0 -5 -9 -7 -20 -4 -11 3 -20 7 -20 9 0 2 9 4
20 4 11 0 20 -4 20 -9z"/>
<path d="M270 475 c-10 -12 -10 -19 -2 -27 9 -9 12 -8 12 5 0 20 26 23 33 5 4
-8 6 -7 6 3 1 9 -6 20 -15 23 -21 8 -20 8 -34 -9z"/>
<path d="M782 464 c-11 -12 -6 -14 30 -13 28 1 34 3 18 6 -14 3 -27 9 -30 13
-3 4 -11 2 -18 -6z"/>
<path d="M876 452 c6 -4 14 -14 17 -22 4 -10 6 -8 6 8 1 15 -5 22 -16 22 -11
0 -14 -3 -7 -8z"/>
<path d="M1040 425 c0 -7 11 -10 30 -7 35 5 33 12 -4 16 -15 2 -26 -2 -26 -9z"/>
<path d="M300 415 c-9 -11 -10 -19 -3 -26 17 -17 48 -6 48 16 0 25 -28 31 -45
10z m31 -18 c-13 -13 -26 -3 -16 12 3 6 11 8 17 5 6 -4 6 -10 -1 -17z"/>
<path d="M1160 411 c0 -6 6 -11 13 -12 6 0 3 -4 -7 -8 -11 -4 -20 -15 -22 -24
-1 -9 3 -14 11 -11 18 7 25 -32 9 -55 -8 -11 -10 -22 -5 -25 5 -3 11 2 14 12
2 9 8 25 12 34 4 10 -1 24 -14 37 -21 21 -21 21 -1 21 24 0 26 13 5 30 -10 9
-15 9 -15 1z"/>
<path d="M1010 401 c0 -6 9 -11 19 -11 31 0 65 -34 57 -56 -6 -17 -9 -17 -19
-4 -7 8 -21 22 -32 30 -11 8 -7 0 9 -18 17 -18 33 -32 37 -32 14 0 21 42 10
53 -17 17 -13 25 17 30 18 3 14 4 -13 4 -22 0 -50 3 -62 7 -14 5 -23 3 -23 -3z"/>
<path d="M740 378 c0 -5 -6 -6 -12 -2 -10 6 -10 4 0 -8 7 -8 10 -22 6 -31 -3
-8 -1 -18 5 -22 7 -3 8 0 5 10 -5 12 -2 14 12 8 18 -7 18 -6 2 11 -21 21 -23
27 -5 25 22 -3 37 1 37 9 0 4 -11 8 -25 8 -14 1 -25 -2 -25 -8z"/>
<path d="M800 362 c0 -16 46 -31 61 -20 11 8 11 9 -2 5 -9 -3 -26 1 -38 9 -11
8 -21 11 -21 6z"/>
<path d="M1127 340 c3 -19 6 -42 6 -50 0 -8 3 -19 7 -25 11 -13 -21 -52 -52
-64 -16 -6 -34 -4 -57 5 -19 8 -36 13 -38 10 -2 -2 14 -11 36 -19 36 -15 44
-15 77 -1 20 8 34 18 31 21 -4 3 1 12 9 20 11 11 12 18 3 29 -6 7 -8 17 -5 22
3 6 -1 27 -9 48 l-15 39 7 -35z"/>
<path d="M1450 339 c0 -24 23 -21 28 4 2 10 -3 17 -12 17 -10 0 -16 -9 -16
-21z"/>
<path d="M1490 334 c0 -17 22 -14 28 4 2 7 -3 12 -12 12 -9 0 -16 -7 -16 -16z"/>
<path d="M1527 330 c-3 -11 -1 -20 4 -20 5 0 9 2 9 4 0 2 3 11 6 20 3 9 2 16
-4 16 -5 0 -12 -9 -15 -20z"/>
<path d="M2140 304 c0 -8 8 -11 21 -9 32 6 33 12 4 17 -16 4 -25 1 -25 -8z"/>
<path d="M2203 308 c4 -13 34 -18 51 -10 11 6 -15 22 -37 22 -11 0 -17 -5 -14
-12z"/>
<path d="M810 294 c0 -8 8 -13 20 -11 31 5 33 14 5 19 -17 4 -25 1 -25 -8z"/>
<path d="M2150 268 c0 -4 20 -7 45 -6 25 0 45 5 45 10 0 5 -20 8 -45 7 -25 -2
-45 -6 -45 -11z"/>
<path d="M2250 270 c0 -5 5 -10 10 -10 6 0 10 5 10 10 0 6 -4 10 -10 10 -5 0
-10 -4 -10 -10z"/>
<path d="M900 199 c0 -5 5 -7 10 -4 6 3 10 8 10 11 0 2 -4 4 -10 4 -5 0 -10
-5 -10 -11z"/>
<path d="M926 193 c-6 -14 -5 -15 5 -6 7 7 10 15 7 18 -3 3 -9 -2 -12 -12z"/>
<path d="M1571 152 c-6 -11 -23 -33 -39 -50 -28 -30 -51 -78 -31 -66 5 3 9 11
9 18 0 7 11 23 24 35 l24 22 20 -25 c22 -28 42 -34 42 -12 0 17 53 32 58 17 4
-13 42 -15 42 -2 0 5 -13 14 -30 21 -24 10 -36 10 -61 0 -26 -11 -33 -11 -46
2 -12 12 -13 20 -4 37 7 11 9 21 7 21 -3 0 -10 -8 -15 -18z m39 -74 c0 -13 -5
-9 -31 19 l-24 26 27 -19 c15 -10 28 -22 28 -26z"/>
<path d="M734 132 c2 -21 21 -19 23 3 3 20 3 20 -6 0 -6 -16 -9 -17 -13 -5 -3
8 -4 9 -4 2z"/>
<path d="M36 38 c3 -5 10 -6 15 -3 13 9 11 12 -6 12 -8 0 -12 -4 -9 -9z"/>
<path d="M323 38 c14 -9 233 -11 224 -2 -3 3 -57 7 -121 8 -63 1 -109 -2 -103
-6z"/>
<path d="M825 40 c-3 -5 -1 -10 4 -10 6 0 11 5 11 10 0 6 -2 10 -4 10 -3 0 -8
-4 -11 -10z"/>
<path d="M1110 41 c0 -5 9 -7 20 -4 11 3 20 7 20 9 0 2 -9 4 -20 4 -11 0 -20
-4 -20 -9z"/>
<path d="M1356 41 c-4 -5 1 -8 9 -7 21 3 31 16 12 16 -9 0 -18 -4 -21 -9z"/>
</g>
</svg>
